# 3ds Max Wavefront OBJ Exporter v0.97b - (c)2007 guruware
# File Created: 14.04.2016 16:35:22

mtllib TuboPortal.mtl

#
# object Cylinder001
#

v  4.9987 0.0000 -0.0000
v  4.6972 0.0000 -1.7097
v  4.6972 20.5925 -1.7097
v  4.9987 20.5925 -0.0000
v  3.8292 0.0000 -3.2131
v  3.8292 20.5925 -3.2131
v  2.4994 0.0000 -4.3290
v  2.4994 20.5925 -4.3290
v  0.8680 0.0000 -4.9228
v  0.8680 20.5925 -4.9228
v  -0.8680 0.0000 -4.9228
v  -0.8680 20.5925 -4.9228
v  -2.4994 0.0000 -4.3290
v  -2.4994 20.5925 -4.3290
v  -3.8292 0.0000 -3.2131
v  -3.8292 20.5925 -3.2131
v  -4.6972 0.0000 -1.7097
v  -4.6972 20.5925 -1.7097
v  -4.9987 0.0000 -0.0000
v  -4.9987 20.5925 -0.0000
v  -4.6972 0.0000 1.7097
v  -4.6972 20.5925 1.7097
v  -3.8292 0.0000 3.2131
v  -3.8292 20.5925 3.2131
v  -2.4994 0.0000 4.3290
v  -2.4994 20.5925 4.3290
v  -0.8680 0.0000 4.9228
v  -0.8680 20.5925 4.9228
v  0.8680 0.0000 4.9228
v  0.8680 20.5925 4.9228
v  2.4993 0.0000 4.3290
v  2.4993 20.5925 4.3290
v  3.8292 0.0000 3.2131
v  3.8292 20.5925 3.2131
v  4.6972 0.0000 1.7097
v  4.6972 20.5925 1.7097
# 36 vertices

vn 1.0000 0.0000 0.0000
vn 0.9397 0.0000 -0.3420
vn 0.7660 0.0000 -0.6428
vn 0.5000 0.0000 -0.8660
vn 0.1736 0.0000 -0.9848
vn -0.1736 0.0000 -0.9848
vn -0.5000 0.0000 -0.8660
vn -0.7660 0.0000 -0.6428
vn -0.9397 0.0000 -0.3420
vn -1.0000 0.0000 -0.0000
vn -0.9397 0.0000 0.3420
vn -0.7660 0.0000 0.6428
vn -0.5000 0.0000 0.8660
vn -0.1736 0.0000 0.9848
vn 0.1736 0.0000 0.9848
vn 0.5000 0.0000 0.8660
vn 0.7660 0.0000 0.6428
vn 0.9397 0.0000 0.3420
# 18 vertex normals

vt 0.7500 0.0000 1.0000
vt 0.8056 0.0000 1.0000
vt 0.8056 1.0000 1.0000
vt 0.7500 1.0000 1.0000
vt 0.8611 0.0000 1.0000
vt 0.8611 1.0000 1.0000
vt 0.9167 0.0000 1.0000
vt 0.9167 1.0000 1.0000
vt 0.9722 0.0000 1.0000
vt 0.9722 1.0000 1.0000
vt 1.0278 0.0000 1.0000
vt 1.0278 1.0000 1.0000
vt 0.0278 0.0000 1.0000
vt 0.0833 0.0000 1.0000
vt 0.0833 1.0000 1.0000
vt 0.0278 1.0000 1.0000
vt 0.1389 0.0000 1.0000
vt 0.1389 1.0000 1.0000
vt 0.1944 0.0000 1.0000
vt 0.1944 1.0000 1.0000
vt 0.2500 0.0000 1.0000
vt 0.2500 1.0000 1.0000
vt 0.3056 0.0000 1.0000
vt 0.3056 1.0000 1.0000
vt 0.3611 0.0000 1.0000
vt 0.3611 1.0000 1.0000
vt 0.4167 0.0000 1.0000
vt 0.4167 1.0000 1.0000
vt 0.4722 0.0000 1.0000
vt 0.4722 1.0000 1.0000
vt 0.5278 0.0000 1.0000
vt 0.5278 1.0000 1.0000
vt 0.5833 0.0000 1.0000
vt 0.5833 1.0000 1.0000
vt 0.6389 0.0000 1.0000
vt 0.6389 1.0000 1.0000
vt 0.6944 0.0000 1.0000
vt 0.6944 1.0000 1.0000
# 38 texture coords

g Cylinder001
usemtl wire_027177088
s 8
f 1/1/1 2/2/2 3/3/2 4/4/1 
f 2/2/2 5/5/3 6/6/3 3/3/2 
f 5/5/3 7/7/4 8/8/4 6/6/3 
f 7/7/4 9/9/5 10/10/5 8/8/4 
f 9/9/5 11/11/6 12/12/6 10/10/5 
f 11/13/6 13/14/7 14/15/7 12/16/6 
f 13/14/7 15/17/8 16/18/8 14/15/7 
f 15/17/8 17/19/9 18/20/9 16/18/8 
f 17/19/9 19/21/10 20/22/10 18/20/9 
f 19/21/10 21/23/11 22/24/11 20/22/10 
f 21/23/11 23/25/12 24/26/12 22/24/11 
f 23/25/12 25/27/13 26/28/13 24/26/12 
f 25/27/13 27/29/14 28/30/14 26/28/13 
f 27/29/14 29/31/15 30/32/15 28/30/14 
f 29/31/15 31/33/16 32/34/16 30/32/15 
f 31/33/16 33/35/17 34/36/17 32/34/16 
f 33/35/17 35/37/18 36/38/18 34/36/17 
f 35/37/18 1/1/1 4/4/1 36/38/18 
# 18 polygons

